<?xml version="1.0" encoding="utf-8"?>
<svg version="1.1" id="Слой_1" xmlns="http://www.w3.org/2000/svg" xmlns:xlink="http://www.w3.org/1999/xlink" x="0px" y="0px"
	 viewBox="0 0 24 24" style="enable-background:new 0 0 24 24;" xml:space="preserve">
<path d="M21,20.9L21,20.9c0.3-0.3,0.3-0.8,0-1.1L4.1,3C3.9,2.7,3.4,2.7,3.1,3l0,0c-0.3,0.3-0.3,0.8,0,1.1l16.8,16.8
	C20.2,21.2,20.7,21.2,21,20.9z M3,21L3,21c0.3,0.3,0.8,0.3,1.1,0L20.9,4.1c0.3-0.3,0.3-0.8,0-1.1v0c-0.3-0.3-0.8-0.3-1.1,0L3,19.9
	C2.7,20.2,2.7,20.7,3,21z"/>
</svg>
